<?xml version="1.0" encoding="UTF-8"?>
<!DOCTYPE svg PUBLIC "-//W3C//DTD SVG 1.1//EN" "http://www.w3.org/Graphics/SVG/1.1/DTD/svg11.dtd">
<!-- Creator: CorelDRAW 2019 (64-Bit) -->
<svg xmlns="http://www.w3.org/2000/svg" xml:space="preserve" width="937px" height="1080px" version="1.1" style="shape-rendering:geometricPrecision; text-rendering:geometricPrecision; image-rendering:optimizeQuality; fill-rule:evenodd; clip-rule:evenodd"
viewBox="0 0 937 1080.42"
 xmlns:xlink="http://www.w3.org/1999/xlink"
 xmlns:xodm="http://www.corel.com/coreldraw/odm/2003">
 <defs>
  <style type="text/css">
   <![CDATA[
    .fil1 {fill:white}
    .fil0 {fill:#FDC609}
    .fil2 {fill:white;fill-rule:nonzero}
   ]]>
  </style>
 </defs>
 <g id="Layer_x0020_1">
  <metadata id="CorelCorpID_0Corel-Layer"/>
  <path class="fil0" d="M129.86 714.36l-88.68 -61.55 0 -593.11 92.48 -59.7 135.91 78.31c0,182.89 -0.05,365.58 -0.05,548.39l-139.66 87.66zm477.29 -607.24l-143.78 82.83 -143.78 -82.83 0 363.97 141.48 71.49 2.3 1.15 2.3 -1.15 141.48 -71.49 0 -363.97zm189.71 607.24l88.7 -61.55 0 -593.11 -92.48 -59.7 -135.93 78.31c0,182.89 0.07,365.58 0.07,548.39l139.64 87.66z"/>
  <path class="fil1" d="M113.25 1017.3l15.19 -31.07 0 41.3 -15.81 26.08 -19.07 -36.76 0 45.88 -18.86 0 0 -83.15 18.25 0 0.61 0 19.69 37.72zm18.44 -37.72l0.61 0 18.25 0 0 83.15 -18.86 0 0 -32.87 0 -7.7 0 -42.58zm318.42 0.41l18.86 0 0 83.15 -18.86 0 0 -83.15zm-122.71 -0.41l15.81 0 3.09 -0.01 0 16.32 -0.03 0 0 50.5 0.03 0 0 16.32 -0.03 0 0 0.02 -18.87 0 0 -83.15zm22.15 -0.02l24.79 -0.1c10.99,0.09 18.73,8.53 17.45,26.16 -0.18,8.5 -2.33,11.22 -6.7,14.3 0,0.81 0,1.62 0,2.43 4.37,3.09 6.52,5.81 6.7,14.3 1.28,17.64 -6.46,26.08 -17.45,26.17l-24.79 -0.1 0 -16.33 19.12 0c3.05,0.07 4.93,-1.46 4.96,-4.77 -0.03,-2.8 -0.06,-5.61 -0.1,-8.41 -0.09,-3.08 -1.6,-4.6 -4.46,-4.57l-19.52 0 0 -15.01 19.52 0c2.86,0.04 4.37,-1.48 4.46,-4.56 0.04,-2.8 0.07,-5.61 0.1,-8.42 -0.03,-3.3 -1.91,-4.83 -4.96,-4.76l-19.12 0 0 -16.33zm182.9 0.43l18.86 0c0,27.75 0.06,55.45 0.06,83.15l-0.06 0 -18.86 0 0 -83.15zm22.17 67.63l36.28 0 0 15.52 -36.28 0 0 -15.52zm91 -67.63l15.85 0 2.89 0 0 83.25 -2.89 0 0 -0.1 -15.85 0 0 -83.15zm22.52 0l36.53 0 0 15.94 -36.53 0 0 -15.94zm0 33.76l30.14 0 0 15.95 -30.14 0 0 -15.95zm0 33.54l36.53 0 0 15.95 -36.53 0 0 -15.95zm-446.11 -67.83l15.31 0 0 16.03 -9.12 0c-2.4,0 -4.36,1.96 -4.36,4.36l0 42.59c0,2.4 1.96,4.36 4.36,4.36l9.12 0 0 16.02 -15.31 0c-9.14,0 -16.62,-7.48 -16.62,-16.63l0 -50.1c0,-9.14 7.48,-16.63 16.62,-16.63zm18.57 0l15.31 0c9.14,0 16.63,7.49 16.63,16.63l0 50.1c0,9.15 -7.49,16.63 -16.63,16.63l-15.31 0 0 -16.02 9.12 0c2.4,0 4.36,-1.96 4.36,-4.36l0 -42.59c0,-2.4 -1.96,-4.36 -4.36,-4.36l-9.12 0 0 -16.03z"/>
  <polygon class="fil1" points="820.58,961.16 846.41,976.07 872.22,990.98 872.22,1020.8 872.22,1050.61 846.41,1065.52 820.58,1080.42 794.76,1065.52 768.95,1050.61 768.95,1020.8 768.95,990.98 794.76,976.07 "/>
  <path class="fil2" d="M112.08 844.67l-47.51 0 0 -29.29c0,-8.53 -0.5,-13.83 -1.5,-15.96 -1,-2.1 -3.23,-3.16 -6.65,-3.16 -3.84,0 -6.3,1.28 -7.34,3.84 -1.04,2.59 -1.57,8.14 -1.57,16.67l0 78.26c0,8.21 0.53,13.54 1.57,16.07 1.04,2.48 3.38,3.73 7,3.73 3.5,0 5.8,-1.25 6.88,-3.77 1.07,-2.49 1.61,-8.39 1.61,-17.66l0 -21.22 47.51 0 0 6.57c0,17.49 -1.35,29.89 -4,37.18 -2.65,7.32 -8.57,13.72 -17.68,19.23 -9.15,5.51 -20.37,8.25 -33.75,8.25 -13.87,0 -25.32,-2.31 -34.36,-6.97 -8.99,-4.66 -14.99,-11.09 -17.91,-19.34 -2.92,-8.24 -4.38,-20.61 -4.38,-37.14l0 -49.26c0,-12.16 0.46,-21.26 1.35,-27.33 0.92,-6.08 3.57,-11.95 8.07,-17.56 4.46,-5.62 10.64,-10.06 18.56,-13.3 7.92,-3.23 17.03,-4.83 27.33,-4.83 13.95,0 25.48,2.49 34.59,7.5 9.07,4.98 15.03,11.2 17.91,18.66 2.85,7.46 4.27,19.05 4.27,34.8l0 16.03zm98.82 -73.58l27.14 168.69 -48.47 0 -2.58 -30.28 -17.1 0 -2.58 30.28 -49.08 0 24.06 -168.69 68.61 0zm-25.18 108.55c-2.26,-19.12 -4.65,-42.79 -7.18,-71.05 -4.69,32.42 -7.65,56.09 -8.92,71.05l16.1 0zm107.97 -108.55l0 135 28.6 0 0 33.69 -76.11 0 0 -168.69 47.51 0zm87.71 0l0 135 28.6 0 0 33.69 -76.11 0 0 -168.69 47.51 0zm46.76 77.87c0,6.22 -0.13,10.62 -0.39,13.2 -0.25,2.59 -1.05,4.95 -2.4,7.09 -1.34,2.14 -3.17,3.78 -5.46,4.93 -2.3,1.15 -4.97,1.72 -8.01,1.72 -2.9,0 -5.49,-0.55 -7.8,-1.63 -2.3,-1.08 -4.16,-2.7 -5.56,-4.86 -1.4,-2.17 -2.23,-4.53 -2.51,-7.07 -0.26,-2.55 -0.39,-7.01 -0.39,-13.38l0 -10.58c0,-6.22 0.12,-10.62 0.38,-13.2 0.25,-2.59 1.05,-4.95 2.4,-7.09 1.34,-2.14 3.17,-3.78 5.47,-4.93 2.29,-1.15 4.96,-1.72 8.01,-1.72 2.89,0 5.48,0.54 7.79,1.63 2.3,1.08 4.16,2.7 5.56,4.86 1.4,2.17 2.23,4.53 2.51,7.07 0.26,2.55 0.4,7.01 0.4,13.38l0 10.58zm-14.11 -20.32c0,-2.87 -0.13,-4.71 -0.41,-5.52 -0.27,-0.8 -0.83,-1.2 -1.68,-1.2 -0.71,0 -1.26,0.33 -1.65,0.98 -0.38,0.64 -0.57,2.55 -0.57,5.74l0 28.88c0,3.58 0.12,5.8 0.38,6.63 0.25,0.85 0.83,1.27 1.74,1.27 0.94,0 1.54,-0.48 1.8,-1.45 0.27,-0.96 0.39,-3.27 0.39,-6.91l0 -28.42zm19.4 -15.95l23.83 0 0 12.36 -9.72 0 0 11.81 8.62 0 0 11.74 -8.62 0 0 25.97 -14.11 0 0 -61.88zm36.94 -41.6l35.47 0c22.87,0 38.36,0.96 46.43,2.92 8.08,1.95 14.23,5.15 18.41,9.59 4.19,4.45 6.85,9.39 7.88,14.83 1.04,5.47 1.58,16.17 1.58,32.16l0 59.07c0,15.15 -0.77,25.28 -2.31,30.36 -1.53,5.12 -4.23,9.13 -8.03,12.01 -3.84,2.88 -8.57,4.87 -14.22,6.04 -5.61,1.14 -14.11,1.71 -25.45,1.71l-59.76 0 0 -168.69zm47.5 28.79l0 111.11c6.73,0 10.88,-1.28 12.42,-3.8 1.57,-2.56 2.34,-9.46 2.34,-20.72l0 -65.62c0,-7.64 -0.27,-12.54 -0.77,-14.71 -0.53,-2.17 -1.69,-3.73 -3.57,-4.73 -1.85,-1.03 -5.3,-1.53 -10.42,-1.53zm187.65 -28.79l0 112.78c0,12.8 -0.46,21.79 -1.35,26.94 -0.92,5.19 -3.57,10.52 -7.99,15.96 -4.42,5.48 -10.26,9.6 -17.49,12.41 -7.26,2.8 -15.8,4.23 -25.64,4.23 -10.87,0 -20.48,-1.68 -28.79,-5.02 -8.34,-3.34 -14.56,-7.67 -18.68,-13 -4.15,-5.37 -6.57,-11.02 -7.34,-16.96 -0.73,-5.93 -1.11,-18.45 -1.11,-37.46l0 -99.88 47.51 0 0 126.54c0,7.35 0.42,12.08 1.26,14.11 0.85,2.06 2.58,3.09 5.15,3.09 2.93,0 4.85,-1.14 5.69,-3.38 0.85,-2.27 1.27,-7.6 1.27,-15.99l0 -124.37 47.51 0zm113.88 0l0 33.7 -27.9 0 0 134.99 -47.51 0 0 -134.99 -28.13 0 0 -33.7 103.54 0zm117.58 0l-34.59 107.63 0 61.06 -43.82 0 0 -61.06 -33.44 -107.63 43.55 0c6.73,33.02 10.61,55.2 11.57,66.57 2.73,-17.98 7.11,-40.16 13.22,-66.57l43.51 0z"/>
  <path class="fil1" d="M920.47 917.6c5.74,0 10.4,4.66 10.4,10.4 0,5.74 -4.66,10.4 -10.4,10.4 -5.74,0 -10.4,-4.66 -10.4,-10.4 0,-5.74 4.66,-10.4 10.4,-10.4zm0 -2.46c7.1,0 12.86,5.76 12.86,12.86 0,7.1 -5.76,12.86 -12.86,12.86 -7.1,0 -12.86,-5.76 -12.86,-12.86 0,-7.1 5.76,-12.86 12.86,-12.86z"/>
  <path class="fil2" d="M915.65 934.39l0 -12.78 5.43 0c1.36,0 2.36,0.12 2.98,0.35 0.62,0.23 1.11,0.63 1.48,1.22 0.37,0.59 0.56,1.26 0.56,2.01 0,0.96 -0.28,1.75 -0.84,2.38 -0.56,0.62 -1.4,1.02 -2.52,1.18 0.56,0.32 1.01,0.68 1.38,1.07 0.36,0.39 0.84,1.08 1.46,2.08l1.56 2.49 -3.09 0 -1.85 -2.79c-0.66,-0.99 -1.11,-1.62 -1.36,-1.87 -0.25,-0.26 -0.5,-0.44 -0.78,-0.53 -0.27,-0.1 -0.71,-0.15 -1.3,-0.15l-0.53 0 0 5.34 -2.58 0zm2.58 -7.37l1.91 0c1.24,0 2.01,-0.05 2.32,-0.16 0.3,-0.1 0.55,-0.28 0.72,-0.54 0.18,-0.26 0.26,-0.58 0.26,-0.96 0,-0.43 -0.11,-0.78 -0.34,-1.04 -0.23,-0.27 -0.56,-0.44 -0.97,-0.5 -0.21,-0.03 -0.84,-0.05 -1.88,-0.05l-2.02 0 0 3.25z"/>
  <path class="fil0" d="M793 1050.34l-7.33 -5.1 0 -49.05 7.65 -4.94 11.23 6.48c0,15.13 0,30.23 0,45.35l-11.55 7.26zm55.17 0l7.33 -5.1 0 -49.05 -7.65 -4.94 -11.24 6.48c0,15.13 0.01,30.23 0.01,45.35l11.55 7.26zm-15.69 -50.23l-11.9 6.85 -11.89 -6.85 0 30.1 11.71 5.92 0.18 0.09 0.19 -0.09 11.71 -5.92 0 -30.1z"/>
 </g>
</svg>
